<svg width="0" height="0" class="hidden">
  <symbol fill="none" xmlns="http://www.w3.org/2000/svg" viewBox="0 0 24 24" id="checkbox_checked">
    <rect x=".5" y=".5" width="23" height="23" rx="3.5" fill="#fff" stroke="#E8E8E8"></rect>
    <path d="M17 9l-6.429 6L7 11.111" stroke="#FF9702" stroke-width="2" stroke-linecap="round"></path>
  </symbol>
  <symbol fill="none" xmlns="http://www.w3.org/2000/svg" viewBox="0 0 24 24" id="checkbox_minus">
    <rect x=".5" y=".5" width="23" height="23" rx="3.5" fill="#fff" stroke="#E8E8E8"></rect>
    <path stroke="#000" d="M8 12.5h8"></path>
  </symbol>
  <symbol fill="none" xmlns="http://www.w3.org/2000/svg" viewBox="0 0 24 24" id="checkbox_plus">
    <rect x=".5" y=".5" width="23" height="23" rx="3.5" fill="#fff" stroke="#E8E8E8"></rect>
    <path d="M15.08 12.88h-2.976v2.912h-1.008V12.88H8.12v-.944h2.976V9.008h1.008v2.928h2.976v.944z" fill="#000"></path>
  </symbol>
  <symbol fill="none" xmlns="http://www.w3.org/2000/svg" viewBox="0 0 17 16" id="filter">
    <path d="M16 1H1l6 7.095V13l3 1.5V8.095L16 1z" stroke="#FBBA3C" stroke-width="1.5" stroke-linecap="round" stroke-linejoin="round"></path>
  </symbol>
  <symbol fill="none" xmlns="http://www.w3.org/2000/svg" viewBox="0 0 77 52" id="logo">
    <path d="M42.387 36.845h.893v1.602H24.958c-.442 0-1.724-1.36-1.724-1.802 0-1.089 1.126-1.802 2.449-1.802h.8v-8.218c-.373-.743-1.6-3.31-1.6-4.998 0-2.53.673-3.653 1.165-4.474.294-.49.435-.742.435-1.133v-.412c.002-1.358.002-2.531-.153-2.756h-.002c-.018 0-.165-.036-.645-.036-2.165 0-5.599-1.088-5.599-4.005 0-1.05.983-1.748 1.85-2.362.298-.212.587-.41.784-.607.166-.166.358-.454.56-.758l.006-.007c.554-.836 1.245-1.873 2.4-1.873.25 0 .799-1.162.799-2.403a.8.8 0 01.8-.801c2.438 0 3.518 2.433 3.854 3.414.809.386 2.545 1.486 2.545 3.795v8.01c0 1.004 4.826 1.79 6.266 3.075.583.521 1.117 1 1.516 1.399.263.264.569.533.893.819l.03.026c1.734 1.525 1.693 4.982 1.693 9.098v3.204a5.59 5.59 0 01-1.693 4.005z" fill="#EA5342"></path>
    <path d="M54.708 14.418H53.52c-.954 0-1.87-.38-2.545-1.056l-1.491-1.493a3.598 3.598 0 00-2.545-1.056H41.23c-.57.048-1.105.21-1.715.618l-.008.006c-.432.29-2.992 2.897-3.361 3.266-1.704 1.706-1.216 6.397 2.162 6.873 2.225.311 5.322-1.407 5.322-3.554 0-1.564.712-1.502 1.2-3.144a2.396 2.396 0 00-1.2 2.068v1.076c.075 1.24-2.287 3.154-3.75 3.943-.13 0-1.31.836-1.44.825-2.204 1.285-6.085 3.566-7.584 4.572a5.821 5.821 0 00-.39.271c-1.725 1.286-2.754 3.457-2.343 5.859.081.475.238.927.43 1.36l-.014-.01h-3.506a1.802 1.802 0 000 3.605h14.98c.545 0 1.003-.361 1.16-.847.39-1.202-1.412-2.645-3.018-2.742.418-.713.9-1.217 1.71-1.217 0-1.273 2.409-1.009 1.515-1.914h-1.162c1.07 1.084-.713-.933-.713.713 0 .418.454.813.36 1.2h2.565v3.606a1.2 1.2 0 001.2 1.201h4.463c.92 0 1.515-1.005 1.05-1.8a3.61 3.61 0 00-2.67-1.76l.267-2.137c1.442-.887 2.505-2.36 2.798-4.065.409-2.386-.606-4.54-2.309-5.83v-2.43h3.6c1.32 0 2.954-.927 3.633-2.06l1.275-2.128c.48-.8-.096-1.82-1.029-1.82z" fill="#FBBA3C"></path>
    <g filter="url(#filter0_d)" fill="#634203">
      <path d="M10.918 25.602c0 .42.104.804.314 1.154.21.332.315.603.315.812a.924.924 0 01-.158.525c-.087.157-.21.236-.367.236-.297 0-.541-.254-.734-.76a4.47 4.47 0 01-.288-1.6c0-.838.306-1.59.918-2.254.629-.664 1.424-.996 2.385-.996.647 0 1.127.314 1.442.944.332.611.498 1.31.498 2.097 0 .786-.026 1.529-.079 2.228a43.15 43.15 0 01-.105 1.599c-.035.367-.105.961-.21 1.782-.104.804-.174 1.364-.21 1.678 1.399 0 2.867-.708 4.405-2.123.21-2.517.498-4.483.865-5.898.384-1.433.769-2.438 1.153-3.015.385-.577.796-.865 1.232-.865.455 0 .822.2 1.101.603.297.402.446.882.446 1.442 0 2.062-.918 4.29-2.753 6.684a50.821 50.821 0 00-.157 3.827c0 1.154.166 2.281.498 3.382.35 1.084.525 1.686.525 1.809 0 .14-.096.245-.289.314a1.502 1.502 0 01-.629.131c-.612 0-1.11-.157-1.494-.471-.192-.158-.35-.69-.472-1.6a19.134 19.134 0 01-.183-2.542c0-.804.026-1.67.078-2.595-1.555 1.328-3.032 2.018-4.43 2.07-.018.245-.035.656-.052 1.233a14.96 14.96 0 01-.079 1.258 6.036 6.036 0 01-.21.917c-.175.647-.594.97-1.258.97-.402 0-.603-.34-.603-1.022 0-.7.105-1.905.315-3.618-.787-.332-1.18-.917-1.18-1.756 0-.612.157-1.127.472-1.547.314-.437.699-.655 1.153-.655.158-1.608.236-2.849.236-3.722 0-1.573-.245-2.36-.734-2.36-1.118 0-1.678.568-1.678 1.704zm12.084-1.966c0-.262-.043-.498-.13-.707-.07-.228-.167-.341-.29-.341-.489 0-.934 1.896-1.336 5.688 1.17-1.782 1.756-3.329 1.756-4.64zm-9.987 7.183a.826.826 0 00-.367.708c0 .297.07.541.21.734l.157-1.442zm11.529-5.191c0-.314.166-.585.498-.812.332-.227.629-.34.891-.34.472 0 .708.27.708.812 0 .541-.14 1.013-.42 1.415-.28.385-.672.577-1.18.577-.331 0-.497-.55-.497-1.652zm.76 12.95c-.682 0-1.197-.14-1.547-.42-.122-.122-.183-.558-.183-1.31 0-.751.052-2 .157-3.748.122-1.766.227-2.718.315-2.858.087-.14.358-.402.812-.786.455-.385.804-.577 1.049-.577.262 0 .393.332.393.996 0 .175-.052.516-.157 1.023-.088.506-.192.873-.315 1.1-.227.577-.34 2.089-.34 4.536 0 .471.052.707.157.707.297-.017.707-.384 1.232-1.1.524-.735 1.04-1.67 1.546-2.806.525-1.136.84-1.704.944-1.704.122 0 .183.07.183.21 0 .49-.253 1.267-.76 2.333-1.38 2.936-2.542 4.404-3.486 4.404z"></path>
      <path d="M35.627 38.578c-.594 0-1.057-.13-1.39-.393-.14-.14-.209-.507-.209-1.101s.026-1.372.079-2.333c-.472 1.258-.953 2.21-1.442 2.857-.49.647-1.11.97-1.861.97-.734 0-1.363-.323-1.888-.97-.506-.646-.76-1.677-.76-3.093s.393-2.665 1.18-3.748c.804-1.084 1.852-1.626 3.145-1.626.63 0 1.285.245 1.966.734.28-3.408.533-5.33.76-5.767.105-.192.35-.472.735-.839.402-.367.734-.55.996-.55s.393.41.393 1.232c0 .961-.087 1.791-.262 2.49-.472 1.8-.77 2.945-.892 3.434-.244 1.888-.367 4.107-.367 6.659 0 .471.053.707.158.707.314-.017.734-.384 1.258-1.1.524-.717 1.04-1.643 1.547-2.78.524-1.153.839-1.73.943-1.73.123 0 .184.07.184.21 0 .49-.253 1.267-.76 2.333-1.38 2.936-2.552 4.404-3.513 4.404zm-3.303-8.493c-.472 0-.944.376-1.415 1.127-.472.752-.708 1.625-.708 2.622 0 .978.122 1.782.367 2.411.262.63.585.944.97.944.786 0 1.686-1.573 2.7-4.719.087-.96.13-1.529.13-1.703-.506-.455-1.188-.682-2.044-.682z"></path>
      <path d="M40.753 31.605l1.442-.157c.14 0 .262.079.367.236a.884.884 0 01.157.498c0 .175-.06.769-.183 1.783-.105 1.013-.157 1.817-.157 2.411 0 .577.052.865.157.865.297-.017.708-.384 1.232-1.1.524-.735 1.04-1.67 1.547-2.806.524-1.136.838-1.704.943-1.704.123 0 .184.07.184.21 0 .49-.254 1.267-.76 2.333-1.381 2.936-2.543 4.404-3.487 4.404-.681 0-1.197-.14-1.547-.42-.122-.122-.183-.882-.183-2.28 0-1.398.148-2.595.446-3.591-1.014 0-1.722-.323-2.124-.97a2.067 2.067 0 01-.314-1.127c0-.42.087-.787.262-1.101.175-.315.42-.472.734-.472.332 0 .629.175.891.524.28.332.42.708.42 1.127 0 .42-.123.84-.367 1.259.07.052.183.078.34.078z"></path>
      <path d="M45.154 36.167l.157-2.936c0-1.87.088-2.893.263-3.068.174-.174.48-.428.917-.76.455-.35.778-.524.97-.524.21 0 .34.035.393.105.053.07.079.21.079.42 0 .75-.166 1.511-.498 2.28-.262 1.608-.393 2.927-.393 3.958 0 1.031.122 1.547.367 1.547.419 0 .9-.367 1.441-1.101.56-.752 1.128-1.852 1.704-3.303.018-.384.035-.786.053-1.206.017-.437.035-.751.052-.944.018-.21.026-.358.026-.445.018-.088.262-.324.734-.708.472-.402.83-.603 1.075-.603.262 0 .393.332.393.996 0 .175-.052.516-.157 1.023-.087.506-.192.873-.314 1.1a59.584 59.584 0 00-.289 3.251 424.282 424.282 0 012.726-3.434c.123-.122.228-.184.315-.184.175 0 .262.088.262.263a.695.695 0 01-.105.34c-.559.822-1.66 2.264-3.303 4.326-.105 2.08-.175 3.495-.21 4.246-.087 2.22-.401 3.775-.943 4.666-.524.91-1.468 1.364-2.831 1.364-.594 0-1.154-.184-1.678-.55-.507-.35-.76-.97-.76-1.862 0-.874.332-1.774.996-2.7.682-.926 1.914-2.35 3.696-4.273l.157-2.857c-.594 1.31-1.18 2.306-1.756 2.988-.577.664-1.215.996-1.913.996-.7 0-1.145-.175-1.337-.524-.193-.35-.289-.979-.289-1.887zm5.06 2.516c-1.993 2.15-2.989 3.871-2.989 5.164 0 .594.105 1.084.315 1.468.21.385.498.577.865.577.559 0 .952-.306 1.18-.918.227-.611.393-1.852.497-3.722l.132-2.569z"></path>
    </g>
    <g filter="url(#filter1_d)">
      <path d="M60.611 38.799a8.439 8.439 0 00-.514-2.069c-.257-.666-.777-1.71-1.562-3.132-.578-1.043-.935-1.707-1.07-1.992a5.342 5.342 0 01-.43-1.22 3.17 3.17 0 01-.033-1.075c.094-.662.392-1.181.893-1.558.502-.383 1.078-.529 1.726-.436.643.09 1.17.4 1.583.925.313.401.536.956.67 1.663.316-.721.726-1.234 1.23-1.54.51-.303 1.043-.416 1.596-.337a2.26 2.26 0 011.538.89c.383.502.533 1.052.448 1.65-.077.54-.286 1.079-.629 1.615-.335.536-.946 1.225-1.831 2.066-1.14 1.085-1.961 1.952-2.462 2.601a8.818 8.818 0 00-1.153 1.949z" fill="#634203"></path>
    </g>
   
  </symbol>
  <symbol fill="none" xmlns="http://www.w3.org/2000/svg" viewBox="0 0 32 32" id="pet_house">
    <path d="M22.015 16.8a1.97 1.97 0 00-1.403.581l-.612.612-.611-.611a1.985 1.985 0 00-2.808 2.807l3.065 3.065a.5.5 0 00.707 0l3.066-3.065a1.986 1.986 0 00-1.404-3.389zm.697 2.681L20 22.193l-2.712-2.712a.985.985 0 011.393-1.392l.965.965a.498.498 0 00.707 0l.966-.965a.985.985 0 011.393 1.392z" fill="#000"></path>
    <path d="M29.755 9.07l-13.5-8a.5.5 0 00-.511 0l-13.5 8.058a.5.5 0 00-.244.43v21a.5.5 0 00.5.5h.001l27-.058a.5.5 0 00.499-.5v-21a.5.5 0 00-.245-.43zM12 17.042V18.5a.5.5 0 00.276.447l1.743.871a2.36 2.36 0 011.267 1.659l.224 1.121a.5.5 0 00.136.256l.051.05a.999.999 0 01.074 1.332l-.161.201-.161.202a2.295 2.295 0 01-3.414.189l-.181-.182a.5.5 0 00-.707.707l.181.182a3.293 3.293 0 004.66 0l.622.777a.5.5 0 00.253.169l.134.038A4.16 4.16 0 0119.97 30H8.37l-.193-.63a11.983 11.983 0 011.345-9.972l.401-.63a.5.5 0 00.025-.044l.116-.232A2.68 2.68 0 0112 17.042zm5.29 8.521l-.653-.817a1.998 1.998 0 00-.176-2.49l-.195-.975a3.354 3.354 0 00-1.8-2.357L13 18.191v-1.507l2.045-.186a.5.5 0 00.402-.274l.5-1a.5.5 0 00-.894-.448l-.376.751-4.926.448-.558-.836.066-.044a2.108 2.108 0 00.851-2.341l1.614-.807a.5.5 0 00.24-.262l.613-1.53a1.747 1.747 0 011.071-1.011l1.188-.396c.182-.06.37-.102.562-.123.2.23.38.477.537.738l.51.849A3.9 3.9 0 0117 12.219v1.045a2.5 2.5 0 005 0c0-.202-.013-.405-.038-.606.2.259.392.525.575.798a18.73 18.73 0 013.003 8.163c.3 2.531.076 5.096-.659 7.536l-.256.855-3.649.008a5.165 5.165 0 00-3.685-4.455zM8.545 14.165a.5.5 0 01.193-.724l.45-.225a1.105 1.105 0 01-.483 1.047l-.065.044-.095-.142zm11.139-3.822A3.907 3.907 0 0121 13.264a1.49 1.49 0 01-.83 1.342 1.508 1.508 0 01-1.947-.553 1.49 1.49 0 01-.223-.789v-1.045a4.9 4.9 0 00-.698-2.52l-.51-.85c-.014-.024-.03-.047-.045-.071a7.285 7.285 0 012.332 1.107c.206.147.407.3.604.458zM29 30.001l-3.33.007.17-.566c.774-2.57 1.01-5.273.693-7.94a19.735 19.735 0 00-3.164-8.6 14.724 14.724 0 00-3.041-3.324 4.9 4.9 0 00-.38-.3.505.505 0 00-.047-.03l-.24-.177a8.285 8.285 0 00-3.213-1.391 3.77 3.77 0 00-1.928.12l-1.188.396a2.746 2.746 0 00-1.683 1.587l-.543 1.355-2.817 1.408a1.5 1.5 0 00-.577 2.174l.372.557 1 1.5a.5.5 0 00.461.22l.445-.04a3.715 3.715 0 00-.822 1.088l-.104.208-.387.608a12.981 12.981 0 00-1.458 10.803l.118.383-4.337.01V9.84l13-7.76 13 7.704V30z" fill="#000"></path>
    <path d="M13.5 22.688a.687.687 0 100-1.375.687.687 0 000 1.375zm.313-10.188a.687.687 0 100-1.375.687.687 0 000 1.375z" fill="#000"></path>
  </symbol>
  <symbol fill="none" xmlns="http://www.w3.org/2000/svg" viewBox="0 0 32 33" id="phone">
    <rect x=".612" y="7.634" width="16.141" height="25.663" rx="3.5" transform="rotate(-15 .612 7.634)" stroke="#000"></rect>
    <rect x="15.787" y=".611" width="16.141" height="25.663" rx="3.5" transform="rotate(14.851 15.787 .611)" fill="#fff" stroke="#000"></rect>
  </symbol>
  <symbol fill="none" xmlns="http://www.w3.org/2000/svg" viewBox="0 0 18 18" id="search">
    <path d="M8.25 14.25a6 6 0 100-12 6 6 0 000 12zm7.5 1.5l-3.262-3.262" opacity=".2" stroke="#25282B" stroke-width="2" stroke-linecap="round" stroke-linejoin="round"></path>
  </symbol>
  <symbol fill="none" xmlns="http://www.w3.org/2000/svg" viewBox="0 0 18 18" id="trash">
    <path d="M2.25 4.5h13.5M6 4.5V3a1.5 1.5 0 011.5-1.5h3A1.5 1.5 0 0112 3v1.5m2.25 0V15a1.5 1.5 0 01-1.5 1.5h-7.5a1.5 1.5 0 01-1.5-1.5V4.5h10.5zM7.5 8.25v4.5m3-4.5v4.5" opacity=".5" stroke="#25282B" stroke-width="2" stroke-linecap="round" stroke-linejoin="round"></path>
  </symbol>
  <symbol fill="none" xmlns="http://www.w3.org/2000/svg" viewBox="0 0 9 16" id="arrow_left">
    <path fill-rule="evenodd" clip-rule="evenodd" d="M6.657 15.071L.293 8.707a1 1 0 010-1.414L6.657.929A1 1 0 118.07 2.343L2.414 8l5.657 5.657a1 1 0 01-1.414 1.414z" fill="#000"></path>
  </symbol>
  <symbol fill="none" xmlns="http://www.w3.org/2000/svg" viewBox="0 0 8 5" id="arrow_up">
    <path opacity=".5" fill-rule="evenodd" clip-rule="evenodd" d="M.146 3.737L3.328.555a.5.5 0 01.708 0l3.182 3.182a.5.5 0 11-.708.708L3.975 1.909h-.586L.854 4.445a.5.5 0 01-.708-.708z" fill="#000"></path>
  </symbol>
  <symbol fill="none" xmlns="http://www.w3.org/2000/svg" viewBox="0 0 32 32" id="award 1">
    <g clip-path="url(#clip0)">
      <path d="M30.733 7.06L16.203.048a.469.469 0 00-.407 0L1.266 7.06a.469.469 0 00-.264.422v17.034c0 .18.103.344.265.422l14.53 7.014a.469.469 0 00.407 0l14.53-7.014a.469.469 0 00.264-.422V7.483a.469.469 0 00-.265-.422zM16 .99l13.451 6.493-3.9 1.882a.466.466 0 00-.078-.05l-13.36-6.45L16 .99zm-4.946 2.406L24.486 9.88l-2.751 1.328L8.309 4.726l2.745-1.33zM24.8 10.769v4.91l-2.57 1.24v-4.91l2.57-1.24zm5.26 13.454l-13.59 6.561V14.791l5.673-2.739a.469.469 0 10-.407-.844L16 13.976l-3.303-1.594a.469.469 0 10-.407.844l3.241 1.565v15.993L1.94 24.223V8.23l10.35 4.996a.467.467 0 00.625-.218.469.469 0 00-.218-.626L2.55 7.482l4.657-2.247 14.08 6.798.007.008v5.625a.469.469 0 00.672.422l3.508-1.693a.469.469 0 00.265-.422v-5.656L30.06 8.23v15.993z" fill="#000"></path>
    </g>
    <defs>
      <clipPath id="clip0">
        <path fill="#fff" d="M0 0h32v32H0z"></path>
      </clipPath>
    </defs>
  </symbol>
  <symbol fill="none" xmlns="http://www.w3.org/2000/svg" viewBox="0 0 16 13" id="box">
    <path stroke="#000" stroke-width="1.5" stroke-linecap="round" stroke-linejoin="round" d="M.75 1.25h14.5m-14.5 5h14.5m-14.5 5h14.5"></path>
  </symbol>
  <symbol fill="none" xmlns="http://www.w3.org/2000/svg" viewBox="0 0 16 12" id="burger">
    <path stroke="#000" stroke-width="1.5" stroke-linecap="round" stroke-linejoin="round" d="M.75 1.25h14.5m-14.5 5h14.5m-14.5 5h14.5"></path>
  </symbol>
  <symbol fill="none" xmlns="http://www.w3.org/2000/svg" viewBox="0 0 14 14" id="cancel">
    <path fill-rule="evenodd" clip-rule="evenodd" d="M13.589.411a.581.581 0 010 .822L1.233 13.59a.581.581 0 11-.822-.822L12.767.41a.581.581 0 01.822 0z" fill="#000"></path>
    <path fill-rule="evenodd" clip-rule="evenodd" d="M.411.411a.581.581 0 000 .822L12.767 13.59a.581.581 0 10.822-.822L1.233.41a.581.581 0 00-.822 0z" fill="#000"></path>
  </symbol>
</svg>