<svg width="0" height="0" class="hidden">
  <symbol fill="none" xmlns="http://www.w3.org/2000/svg" viewBox="0 0 108 78" id="index">
    <path d="M60 56.884h1.38v2.473H33.092c-.682 0-2.662-2.099-2.662-2.782 0-1.681 1.738-2.783 3.781-2.783h1.235V41.105c-.576-1.147-2.47-5.11-2.47-7.717 0-3.904 1.04-5.639 1.8-6.907.453-.756.67-1.145.67-1.749v-.635c.003-2.097.003-3.908-.236-4.256h-.002c-.03 0-.256-.055-.997-.055-3.342 0-8.644-1.679-8.644-6.183 0-1.62 1.517-2.698 2.856-3.647.46-.326.907-.633 1.21-.937.257-.257.553-.7.866-1.17l.008-.011c.856-1.29 1.922-2.892 3.704-2.892.386 0 1.235-1.794 1.235-3.71A1.237 1.237 0 0136.682 0c3.765 0 5.432 3.756 5.95 5.27 1.25.597 3.93 2.295 3.93 5.86v12.365c0 1.551 7.45 2.763 9.674 4.749.9.804 1.724 1.543 2.34 2.16.407.407.878.822 1.38 1.263l.045.04c2.677 2.355 2.613 7.693 2.613 14.047v4.947a8.627 8.627 0 01-2.613 6.183z" fill="#EA5342"></path>
    <path d="M79.023 22.259h-1.836a5.552 5.552 0 01-3.93-1.63l-2.301-2.305a5.554 5.554 0 00-3.93-1.63h-8.811c-.882.074-1.706.325-2.648.953l-.013.01c-.666.448-4.62 4.472-5.19 5.043-2.629 2.633-1.875 9.876 3.34 10.61 3.434.48 8.215-2.173 8.215-5.487 0-2.415 1.1-2.318 1.852-4.854a3.7 3.7 0 00-1.852 3.194v1.66c.116 1.913-3.53 4.87-5.788 6.087-.2 0-2.024 1.292-2.225 1.275-3.402 1.983-9.394 5.506-11.708 7.057a8.99 8.99 0 00-.602.42c-2.662 1.985-4.251 5.337-3.617 9.044.126.735.367 1.431.663 2.1l-.02-.014h-5.413a2.78 2.78 0 00-2.779 2.783 2.78 2.78 0 002.779 2.782h23.126c.843 0 1.55-.558 1.792-1.308.602-1.855-2.18-4.084-4.66-4.233.646-1.101 1.39-1.88 2.641-1.88 0-1.965 3.718-1.557 2.338-2.955h-1.794c1.653 1.675-1.1-1.44-1.1 1.102 0 .645.7 1.255.556 1.853h3.96v5.566c0 1.024.828 1.855 1.851 1.855h6.892c1.42 0 2.338-1.552 1.62-2.78a5.572 5.572 0 00-4.121-2.716l.412-3.3c2.226-1.369 3.867-3.642 4.319-6.275.63-3.684-.935-7.01-3.565-9.001v-3.752h5.557c2.038 0 4.562-1.431 5.61-3.181l1.968-3.284c.741-1.237-.148-2.81-1.588-2.81z" fill="#FBBA3C"></path>
    <g filter="url(#filter0_d)" fill="#634203">
      <path d="M11.416 39.526c0 .648.162 1.241.486 1.781.324.513.486.93.486 1.255 0 .296-.081.566-.243.81-.135.242-.324.363-.567.363-.458 0-.836-.39-1.133-1.173a6.902 6.902 0 01-.445-2.47c0-1.294.472-2.454 1.416-3.48.972-1.025 2.2-1.537 3.683-1.537.999 0 1.74.485 2.226 1.456.513.945.77 2.024.77 3.238s-.041 2.361-.122 3.44a66.72 66.72 0 01-.162 2.469 97.874 97.874 0 01-.324 2.752c-.162 1.241-.27 2.104-.324 2.59 2.159 0 4.425-1.093 6.8-3.278.323-3.885.768-6.92 1.335-9.106.594-2.212 1.187-3.764 1.78-4.654.594-.89 1.228-1.336 1.903-1.336.701 0 1.268.31 1.7.931.458.62.688 1.363.688 2.226 0 3.184-1.417 6.624-4.25 10.32a78.404 78.404 0 00-.243 5.909c0 1.78.257 3.52.77 5.22.539 1.673.809 2.604.809 2.793 0 .216-.149.378-.445.486a2.32 2.32 0 01-.972.202c-.944 0-1.713-.243-2.307-.728-.296-.243-.54-1.066-.728-2.47a29.527 29.527 0 01-.283-3.925c0-1.24.04-2.577.121-4.006-2.401 2.05-4.681 3.116-6.84 3.197a53.447 53.447 0 00-.08 1.902c-.027.863-.068 1.51-.122 1.942a9.32 9.32 0 01-.324 1.417c-.27.998-.917 1.497-1.942 1.497-.62 0-.931-.526-.931-1.578 0-1.08.162-2.94.486-5.585-1.215-.513-1.822-1.416-1.822-2.712 0-.944.243-1.74.729-2.387.486-.675 1.08-1.012 1.78-1.012.243-2.482.365-4.398.365-5.747 0-2.428-.378-3.642-1.133-3.642-1.727 0-2.59.877-2.59 2.63zm18.657-3.035c0-.405-.067-.769-.202-1.093-.108-.35-.256-.526-.445-.526-.755 0-1.443 2.928-2.064 8.782 1.808-2.752 2.712-5.14 2.712-7.163zM14.654 47.58c-.378.27-.566.634-.566 1.093 0 .458.107.836.323 1.133l.243-2.226zm17.799-8.013c0-.486.257-.904.77-1.255.512-.35.97-.526 1.375-.526.729 0 1.093.418 1.093 1.255 0 .836-.216 1.565-.648 2.185-.431.594-1.038.89-1.82.89-.513 0-.77-.85-.77-2.55zm1.174 19.992c-1.052 0-1.848-.215-2.388-.647-.189-.189-.283-.864-.283-2.024 0-1.16.08-3.089.243-5.787.189-2.725.35-4.195.485-4.411.135-.216.553-.62 1.255-1.214.702-.594 1.241-.89 1.619-.89.404 0 .607.512.607 1.537 0 .27-.081.796-.243 1.578-.135.783-.297 1.35-.486 1.7-.35.89-.526 3.224-.526 7.002 0 .728.081 1.092.243 1.092.459-.027 1.093-.593 1.902-1.7.81-1.133 1.606-2.576 2.388-4.33.81-1.754 1.295-2.63 1.457-2.63.189 0 .283.108.283.323 0 .756-.391 1.956-1.173 3.602-2.132 4.533-3.926 6.8-5.383 6.8z"></path>
      <path d="M49.565 59.56c-.918 0-1.633-.203-2.145-.608-.216-.215-.324-.782-.324-1.7 0-.917.04-2.117.121-3.601-.728 1.942-1.47 3.413-2.226 4.41-.755 1-1.713 1.498-2.873 1.498-1.133 0-2.105-.499-2.914-1.497-.782-.998-1.174-2.59-1.174-4.776 0-2.185.608-4.114 1.822-5.787 1.24-1.673 2.86-2.51 4.856-2.51.971 0 1.983.379 3.035 1.134.432-5.261.823-8.229 1.174-8.904.162-.296.54-.728 1.133-1.294.62-.567 1.133-.85 1.538-.85s.607.634.607 1.902c0 1.484-.135 2.765-.404 3.844a652.959 652.959 0 00-1.377 5.302c-.377 2.914-.566 6.34-.566 10.28 0 .728.08 1.092.243 1.092.485-.027 1.133-.593 1.942-1.7.81-1.106 1.606-2.536 2.388-4.29.81-1.78 1.295-2.67 1.457-2.67.189 0 .283.108.283.323 0 .756-.39 1.956-1.173 3.602-2.132 4.533-3.94 6.8-5.423 6.8zm-5.1-13.113c-.728 0-1.457.58-2.185 1.74-.729 1.16-1.093 2.51-1.093 4.047 0 1.511.189 2.752.567 3.724.404.97.904 1.456 1.497 1.456 1.214 0 2.604-2.428 4.169-7.284.134-1.484.202-2.361.202-2.63-.782-.702-1.835-1.053-3.157-1.053z"></path>
      <path d="M57.479 48.794l2.226-.243c.215 0 .404.122.566.365.162.242.243.499.243.769s-.094 1.187-.283 2.752c-.162 1.564-.243 2.806-.243 3.723 0 .89.08 1.335.243 1.335.459-.027 1.093-.593 1.902-1.7.81-1.133 1.605-2.576 2.388-4.33.81-1.754 1.295-2.63 1.457-2.63.189 0 .283.108.283.323 0 .756-.391 1.956-1.174 3.602-2.131 4.533-3.925 6.8-5.382 6.8-1.052 0-1.849-.217-2.388-.648-.189-.189-.283-1.363-.283-3.521 0-2.159.229-4.007.688-5.545-1.565 0-2.658-.499-3.279-1.497a3.19 3.19 0 01-.485-1.74c0-.648.135-1.214.405-1.7s.647-.728 1.133-.728c.512 0 .971.27 1.376.809.431.512.647 1.093.647 1.74 0 .648-.189 1.295-.566 1.943.108.08.283.121.526.121z"></path>
      <path d="M64.273 55.836l.243-4.533c0-2.887.135-4.465.405-4.735.27-.27.742-.66 1.416-1.173.702-.54 1.2-.81 1.498-.81.323 0 .526.054.607.162.08.108.121.324.121.648 0 1.16-.256 2.333-.769 3.52-.405 2.483-.607 4.52-.607 6.112 0 1.591.189 2.387.567 2.387.647 0 1.39-.566 2.225-1.7.864-1.16 1.74-2.86 2.631-5.099.027-.593.054-1.214.081-1.861.027-.675.054-1.16.081-1.457a9.56 9.56 0 00.04-.688c.028-.135.405-.5 1.134-1.093.728-.62 1.281-.93 1.659-.93.405 0 .607.512.607 1.537 0 .27-.08.796-.243 1.578-.135.783-.297 1.35-.485 1.7a92.01 92.01 0 00-.446 5.019c2.644-3.346 4.047-5.113 4.21-5.302.188-.189.35-.283.485-.283.27 0 .405.134.405.404 0 .162-.054.338-.162.527-.864 1.267-2.563 3.493-5.1 6.677-.161 3.21-.27 5.396-.323 6.556-.135 3.427-.62 5.828-1.457 7.204-.81 1.403-2.267 2.105-4.371 2.105-.917 0-1.78-.284-2.59-.85-.783-.54-1.174-1.498-1.174-2.874 0-1.349.513-2.738 1.538-4.168 1.052-1.43 2.954-3.629 5.706-6.597l.243-4.411c-.917 2.023-1.821 3.561-2.711 4.614-.89 1.025-1.875 1.537-2.955 1.537-1.079 0-1.767-.27-2.064-.809-.297-.54-.445-1.511-.445-2.914zm7.811 3.885c-3.076 3.319-4.614 5.976-4.614 7.973 0 .917.162 1.673.486 2.266.324.594.769.89 1.335.89.864 0 1.471-.471 1.822-1.416.35-.944.607-2.86.769-5.747l.202-3.966z"></path>
    </g>
    <g filter="url(#filter1_d)">
      <path d="M88.136 59.9a13.024 13.024 0 00-.794-3.194c-.395-1.028-1.199-2.64-2.41-4.836-.894-1.61-1.445-2.635-1.653-3.075-.332-.699-.553-1.326-.664-1.883a4.9 4.9 0 01-.05-1.66c.145-1.022.604-1.824 1.378-2.405.775-.592 1.664-.816 2.666-.674.992.14 1.806.617 2.442 1.429.483.62.828 1.475 1.034 2.566.489-1.113 1.122-1.905 1.9-2.375.788-.47 1.61-.644 2.464-.522.992.14 1.784.598 2.375 1.374.592.775.822 1.624.69 2.548-.118.835-.44 1.666-.97 2.492-.517.829-1.46 1.892-2.827 3.191-1.76 1.674-3.028 3.013-3.801 4.015-.762.994-1.356 1.997-1.78 3.01z" fill="#634203"></path>
    </g>
    <defs>
      <filter id="filter0_d" x="0" y="17.646" width="90.138" height="59.661" filterUnits="userSpaceOnUse" color-interpolation-filters="sRGB">
        <feFlood flood-opacity="0" result="BackgroundImageFix"></feFlood>
        <feColorMatrix in="SourceAlpha" values="0 0 0 0 0 0 0 0 0 0 0 0 0 0 0 0 0 0 127 0"></feColorMatrix>
        <feOffset dy="-5"></feOffset>
        <feGaussianBlur stdDeviation="5"></feGaussianBlur>
        <feColorMatrix values="0 0 0 0 0 0 0 0 0 0 0 0 0 0 0 0 0 0 0.15 0"></feColorMatrix>
        <feBlend in2="BackgroundImageFix" result="effect1_dropShadow"></feBlend>
        <feBlend in="SourceGraphic" in2="effect1_dropShadow" result="shape"></feBlend>
      </filter>
      <filter id="filter1_d" x="72.516" y="27.132" width="35.034" height="37.769" filterUnits="userSpaceOnUse" color-interpolation-filters="sRGB">
        <feFlood flood-opacity="0" result="BackgroundImageFix"></feFlood>
        <feColorMatrix in="SourceAlpha" values="0 0 0 0 0 0 0 0 0 0 0 0 0 0 0 0 0 0 127 0"></feColorMatrix>
        <feOffset dy="-5"></feOffset>
        <feGaussianBlur stdDeviation="5"></feGaussianBlur>
        <feColorMatrix values="0 0 0 0 0 0 0 0 0 0 0 0 0 0 0 0 0 0 0.15 0"></feColorMatrix>
        <feBlend in2="BackgroundImageFix" result="effect1_dropShadow"></feBlend>
        <feBlend in="SourceGraphic" in2="effect1_dropShadow" result="shape"></feBlend>
      </filter>
    </defs>
  </symbol>
</svg>